<svg width="68" height="68" viewBox="0 0 68 68" fill="#fff" xmlns="http://www.w3.org/2000/svg">
  <path d="M68 58.6046L54.2274 44.8325C57.0393 40.3325 58.6673 35.02 58.6673 29.3339C58.6673 13.1593 45.5085 0 29.3339 0C13.1593 0 0 13.1593 0 29.3339C0 45.5085 13.1593 58.6678 29.3339 58.6678C35.02 58.6678 40.3319 57.0399 44.832 54.228L58.6046 68L68 58.6046ZM3.98386 29.3339C3.98386 15.3559 15.3559 3.98386 29.3339 3.98386C43.3119 3.98386 54.6835 15.3559 54.6835 29.3339C54.6835 43.3119 43.3119 54.684 29.3339 54.684C15.3559 54.684 3.98386 43.3119 3.98386 29.3339ZM51.8612 48.0999L62.3658 58.6046L58.6046 62.3658L48.0999 51.8612C49.4638 50.723 50.723 49.4638 51.8612 48.0999Z"></path>
  <path d="M26.8888 32.7746L20.671 26.5568L17.8539 29.3739L26.8888 38.4088L40.8134 24.4842L37.9963 21.6671L26.8888 32.7746Z"></path>
</svg>