<svg aria-hidden="true" version="1.1" xmlns="http://www.w3.org/2000/svg" width="20px" height="20px" viewBox="0 0 1024 1024"><path d="M192 192v128h-64v-256h-128v-64h192v128h806.558l-108 576h-890.558v-64h837.442l84-448h-729.442zM64 576v-64h256v64h-256zM128 448v-64h256v64h-256zM896 1024c-70.692 0-128-57.308-128-128s57.308-128 128-128c70.692 0 128 57.308 128 128s-57.308 128-128 128zM896 960c35.346 0 64-28.654 64-64s-28.654-64-64-64c-35.346 0-64 28.654-64 64s28.654 64 64 64zM224 1024c-70.692 0-128-57.308-128-128s57.308-128 128-128c70.692 0 128 57.308 128 128s-57.308 128-128 128zM224 960c35.346 0 64-28.654 64-64s-28.654-64-64-64c-35.346 0-64 28.654-64 64s28.654 64 64 64z"></path></svg>