<svg id="Capa_10" version="1.1" xmlns="http://www.w3.org/2000/svg" xmlns:xlink="http://www.w3.org/1999/xlink" x="0px" y="0px" viewBox="0 0 60.109 60.109" style="enable-background:new 0 0 60.109 60.109;" xml:space="preserve">
                <g>
                  <path d="M48.737,37.167c-2.396,0-4.407,1.448-5.684,3.212c-1.276-1.764-3.288-3.212-5.684-3.212c-3.819,0-6.871,2.963-7.27,7.052                  c-0.042,0.268-0.145,1.221,0.225,2.709c0.546,2.197,1.801,4.192,3.631,5.77l8.329,7.127c0.214,0.184,0.487,0.285,0.769,0.285                  c0.285,0,0.56-0.103,0.769-0.284l8.332-7.129c1.829-1.578,3.084-3.572,3.629-5.769c0.369-1.489,0.267-2.442,0.225-2.709                  C55.608,40.13,52.556,37.167,48.737,37.167z M53.842,46.446c-0.444,1.792-1.479,3.43-2.991,4.732l-7.797,6.672l-7.795-6.671                  c-1.513-1.303-2.547-2.94-2.992-4.734c-0.302-1.213-0.193-1.896-0.194-1.896l0.017-0.106c0.244-2.621,2.137-5.275,5.281-5.275                  c2.189,0,3.974,1.811,4.77,3.604l0.914,2.06l0.914-2.06c0.796-1.794,2.58-3.604,4.77-3.604c3.145,0,5.037,2.654,5.295,5.366                  C54.034,44.54,54.145,45.225,53.842,46.446z"></path>
                  <circle cx="30.055" cy="29.879" r="2"></circle>
                  <path d="M30.055,0c-16.542,0-30,13.458-30,30s13.458,30,30,30c2.368,0,4.669-0.284,6.881-0.806l-4.929-4.218                  c-2.309-1.989-3.896-4.521-4.593-7.326c-0.46-1.858-0.379-3.19-0.289-3.82c0.564-5.492,4.971-9.663,10.246-9.663                  c1.994,0,3.983,0.686,5.684,1.946c1.7-1.261,3.689-1.946,5.684-1.946c4.157,0,7.765,2.595,9.39,6.399                  c1.242-3.289,1.927-6.848,1.927-10.566C60.055,13.458,46.597,0,30.055,0z M29.055,7.879c0-0.553,0.448-1,1-1s1,0.447,1,1v1                  c0,0.553-0.448,1-1,1s-1-0.447-1-1V7.879z M9.055,30.879h-1c-0.552,0-1-0.447-1-1s0.448-1,1-1h1c0.552,0,1,0.447,1,1                  S9.607,30.879,9.055,30.879z M15.913,45.436l-0.707,0.707c-0.195,0.195-0.451,0.293-0.707,0.293s-0.512-0.098-0.707-0.293                  c-0.391-0.391-0.391-1.023,0-1.414l0.707-0.707c0.391-0.391,1.023-0.391,1.414,0S16.303,45.045,15.913,45.436z M15.913,15.736                  c-0.195,0.195-0.451,0.293-0.707,0.293s-0.512-0.098-0.707-0.293l-0.707-0.707c-0.391-0.391-0.391-1.023,0-1.414                  s1.023-0.391,1.414,0l0.707,0.707C16.303,14.713,16.303,15.346,15.913,15.736z M30.055,33.879c-1.858,0-3.411-1.279-3.858-3h-7.142                  c-0.552,0-1-0.447-1-1s0.448-1,1-1h7.142c0.364-1.399,1.459-2.494,2.858-2.858V15.879c0-0.553,0.448-1,1-1s1,0.447,1,1v10.142                  c1.72,0.447,3,2,3,3.858C34.055,32.085,32.26,33.879,30.055,33.879z M46.318,15.029l-0.707,0.707                  c-0.195,0.195-0.451,0.293-0.707,0.293s-0.512-0.098-0.707-0.293c-0.391-0.391-0.391-1.023,0-1.414l0.707-0.707                  c0.391-0.391,1.023-0.391,1.414,0S46.708,14.639,46.318,15.029z"></path>
                </g>
                <g></g>
                <g></g>
                <g></g>
                <g></g>
                <g></g>
                <g></g>
                <g></g>
                <g></g>
                <g></g>
                <g></g>
                <g></g>
                <g></g>
                <g></g>
                <g></g>
                <g></g>
              </svg>