<svg width="46px" height="46px" xmlns="http://www.w3.org/2000/svg" viewBox="0 0 22.8 23.9" style="
    fill: red;
">
                            <path class="fill-primary" d="M661.6,3170.6c.3,0,.5.1.5.3s-1.3,1.3-2.8,2.6-3.7,4.1-3.7,6.8,3.8,5.3,3.8,9-2,5.1-5,5.1-5.7-1.8-5.7-7.3C648.7,3177.9,659,3170.6,661.6,3170.6Zm8,2.5a.4.4,0,0,1,.5.5c0,1.1-3,2.6-3,5.9s4.4,4.2,4.4,7.6a4.2,4.2,0,0,1-4.2,4.2c-3.2,0-5.2-2.5-5.2-5.9C662.1,3178,668.1,3173.1,669.6,3173.1Z" transform="translate(-648.7 -3170.6)"></path>
                        </svg>