<svg aria-hidden="true" version="1.1" xmlns="http://www.w3.org/2000/svg" width="20px" height="20px" viewBox="0 0 1024 1024"> <path d="M950.659 110.781c0 25.603-20.756 46.361-46.361 46.361s-46.361-20.756-46.361-46.361c0-25.603 20.756-46.361 46.361-46.361s46.361 20.756 46.361 46.361z"></path> <path d="M1007.705 340.864c0 25.603-20.756 46.361-46.361 46.361s-46.361-20.756-46.361-46.361c0-25.603 20.756-46.361 46.361-46.361s46.361 20.756 46.361 46.361z"></path> <path d="M504.981 998.79c207.904 0 392.383-134.377 459.067-331.531 4.067-12.006-0.306-25.264-10.696-32.531-10.363-7.212-24.315-6.771-34.231 1.196-61.476 49.553-135.652 75.735-214.477 75.735-188.74 0-344.175-153.534-344.175-342.274 0-118.016 61.816-228.16 162.202-291.419 10.75-6.771 14.484-19.888 10.947-32.090-3.509-12.2-15.932-20.666-28.633-20.666-267.373 0-488.691 219.416-488.691 486.789s221.319 486.789 488.691 486.789z"></path> <path d="M562.024 255.297c47.186 0 85.57 38.384 85.57 85.57 0 15.766 12.756 28.522 28.522 28.522s28.522-12.756 28.522-28.522c0-47.186 38.384-85.57 85.57-85.57 15.766 0 28.522-12.756 28.522-28.522s-12.756-28.522-28.522-28.522c-47.186 0-85.57-40.286-85.57-87.47 0-15.766-12.756-28.522-28.522-28.522s-28.522 12.756-28.522 28.522c0 47.186-38.384 87.47-85.57 87.47-15.766 0-28.522 12.756-28.522 28.522s12.756 28.522 28.522 28.522z"></path> </svg>