
<svg xmlns="http://www.w3.org/2000/svg" width="38" height="33" viewBox="0 0 38 33">
    <g fill="none" fill-rule="nonzero">
             <path fill="#009688" d="M2.392 12.137a6.306 6.306 0 0 1 8.918 0l11.838 11.84-8.917 8.917L2.392 21.055a6.306 6.306 0 0 1 0-8.918z"/>
            <path fill="#fff" d="M5.22 14.966a6.306 6.306 0 0 1 8.918 0l9.01 9.01-8.917 8.918-9.01-9.01a6.306 6.306 0 0 1 0-8.918z"/>
            <path fill="#009688" d="M35.935 2.272a6.306 6.306 0 0 1 0 8.918L14.231 32.894l-8.918-8.918L27.017 2.272a6.306 6.306 0 0 1 8.918 0z"/>
            <path fill="#fff" d="M23.241 14.966a6.306 6.306 0 0 1 0 8.917l-9.01 9.01-8.918-8.917 9.01-9.01a6.306 6.306 0 0 1 8.918 0z"/>
    </g>
</svg>

