<?xml version="1.0" encoding="utf-8"?>
<!-- Generator: Adobe Illustrator 17.0.2, SVG Export Plug-In . SVG Version: 6.00 Build 0)  -->
<!DOCTYPE svg PUBLIC "-//W3C//DTD SVG 1.1//EN" "http://www.w3.org/Graphics/SVG/1.1/DTD/svg11.dtd">
<svg version="1.1" id="Layer_1" xmlns="http://www.w3.org/2000/svg" xmlns:xlink="http://www.w3.org/1999/xlink" x="0px" y="0px"
	 width="96px" height="63px" viewBox="0 0 96 63" enable-background="new 0 0 96 63" xml:space="preserve">
<g>
	<path fill="#D1D3D4" d="M52.664,0c-8.267,0-14.968,6.701-14.968,14.968c0,8.266,6.701,14.968,14.968,14.968
		c8.266,0,14.968-6.702,14.968-14.968C67.632,6.701,60.93,0,52.664,0L52.664,0z M52.664,27.129c-6.717,0-12.161-5.445-12.161-12.161
		c0-6.717,5.445-12.161,12.161-12.161c6.716,0,12.161,5.445,12.161,12.161C64.825,21.684,59.38,27.129,52.664,27.129L52.664,27.129z
		 M61.471,13.645l-7.484-7.484c-0.731-0.731-1.915-0.731-2.646,0c-0.731,0.731-0.731,1.915,0,2.646l4.29,4.29H45.18
		c-1.033,0-1.871,0.838-1.871,1.871c0,1.033,0.838,1.871,1.871,1.871h10.451l-4.29,4.29c-0.731,0.731-0.731,1.915,0,2.646
		c0.365,0.365,0.844,0.548,1.323,0.548c0.479,0,0.957-0.183,1.323-0.548l7.484-7.484C62.202,15.56,62.202,14.375,61.471,13.645
		L61.471,13.645z M61.471,13.645"/>
</g>
<g>
	<path fill="#D1D3D4" d="M15.997,29.935c8.267,0,14.968-6.701,14.968-14.968C30.965,6.702,24.264,0,15.997,0
		C7.731,0,1.03,6.702,1.03,14.968C1.03,23.234,7.731,29.935,15.997,29.935L15.997,29.935z M15.997,2.807
		c6.717,0,12.161,5.445,12.161,12.161c0,6.717-5.445,12.161-12.161,12.161c-6.716,0-12.161-5.445-12.161-12.161
		C3.836,8.251,9.281,2.807,15.997,2.807L15.997,2.807z M7.191,16.291l7.484,7.484c0.731,0.731,1.915,0.731,2.646,0
		c0.731-0.731,0.731-1.915,0-2.646l-4.29-4.29h10.451c1.033,0,1.871-0.838,1.871-1.871c0-1.033-0.838-1.871-1.871-1.871H13.031
		l4.29-4.29c0.731-0.731,0.731-1.915,0-2.646c-0.365-0.365-0.844-0.548-1.323-0.548c-0.479,0-0.957,0.183-1.323,0.548l-7.484,7.484
		C6.46,14.375,6.46,15.56,7.191,16.291L7.191,16.291z M7.191,16.291"/>
</g>
<g>
	<path fill="#D1D3D4" d="M84.211,0.426c-5.024,0-9.096,4.073-9.096,9.096c0,5.024,4.073,9.096,9.096,9.096
		c5.024,0,9.096-4.073,9.096-9.096C93.307,4.499,89.235,0.426,84.211,0.426L84.211,0.426z M84.211,16.913
		c-4.082,0-7.391-3.309-7.391-7.391c0-4.082,3.309-7.391,7.391-7.391c4.082,0,7.391,3.309,7.391,7.391
		C91.602,13.604,88.293,16.913,84.211,16.913L84.211,16.913z M81.937,5.543l6.822,3.98l-6.822,3.98V5.543z M81.937,5.543"/>
</g>
<g>
	<path fill="#D1D3D4" d="M84.211,27.046c-5.024,0-9.096,4.073-9.096,9.096c0,5.024,4.073,9.096,9.096,9.096
		c5.024,0,9.096-4.073,9.096-9.096C93.307,31.119,89.235,27.046,84.211,27.046L84.211,27.046z M84.211,43.534
		c-4.082,0-7.391-3.309-7.391-7.391c0-4.082,3.309-7.391,7.391-7.391c4.082,0,7.391,3.309,7.391,7.391
		C91.602,40.225,88.293,43.534,84.211,43.534L84.211,43.534z M80.8,32.732h2.274v6.822H80.8V32.732z M85.348,32.732h2.274v6.822
		h-2.274V32.732z M85.348,32.732"/>
</g>
</svg>
