<svg xmlns="http://www.w3.org/2000/svg" viewBox="0 0 30 30"><path fill="#1dbf73" stroke="#1dbf73" stroke-width=".2" d="M23.42 15.403c.855-.864.59-2.612-.892-2.612l-3.903.002c.148-.837.363-2.226.354-2.357-.082-1.242-.863-2.754-.896-2.815-.143-.27-.862-.634-1.586-.478-.935.203-1.03.808-1.027.975 0 0 .04 1.655.044 2.097-.447.996-1.99 3.613-2.457 3.815a.706.706 0 0 0-.37-.105H7.755A.76.76 0 0 0 7 14.69v6.908a.72.72 0 0 0 .71.665h4.43a.718.718 0 0 0 .711-.722v-.23s.165-.012.24.037c.285.183.636.414 1.095.414h6.61c2.47 0 2.205-2.224 1.98-2.527.417-.46.675-1.273.323-1.915.27-.29.746-1.09.32-1.917zM11.986 21.54H7.71v-6.894h4.278v6.894zm10.28-6.196l-.041.17c1.138.329.532 1.659-.284 1.745l-.04.17c1.091.282.57 1.652-.285 1.745l-.04.17c.891.149.675 1.691-.675 1.691l-6.722.003c-.475 0-.907-.549-1.257-.549h-.304v-5.306c.38-.239.846-.549 1.106-.772.49-.424 2.497-3.71 2.497-4.122 0-.412-.045-2.191-.045-2.191s.394-.514 1.272-.14c0 0 .74 1.406.815 2.526 0 0-.333 2.307-.512 3.03h4.66c1.146.002.927 1.659-.146 1.83z"></path></svg>